{"title":"N-Secure.2010.Cam.XviD.Feel-Free","uid":5944790,"size":816484323,"categoryP":"video","categoryS":"movies","magnet":"?xt=urn:btih:203b3b5c7d4db82f01658538d5512ba4f4d2488e&amp;dn=N-Secure.2010.Cam.XviD.Feel-Free&amp;tr=udp%3A%2F%2Ftracker.openbittorrent.com%3A80&amp;tr=udp%3A%2F%2Fopen.demonii.com%3A1337&amp;tr=udp%3A%2F%2Ftracker.coppersurfer.tk%3A6969&amp;tr=udp%3A%2F%2Fexodus.desync.com%3A6969","seeders":0,"leechers":0,"uploader":"neon","files":9,"time":1289307928,"description":"Genre:Drama\nLanguage:English\n &lt;a href=&quot; http://www.imdb.com/title/tt1289419/&quot; rel=&quot;nofollow&quot; target=&quot;_NEW&quot;&gt; http://www.imdb.com/title/tt1289419/&lt;/a&gt;\nSource:Cam Dvdr\n\nGeneral\nComplete name :N-Secure.2010.Cam.XviD.Feel-Free\nFormat : AVI\nFormat/Info : Audio Video Interleave\nFile size : 777 MiB\nDuration : 1h 38mn\nOverall bit rate : 1 108 Kbps\nVideo #0\nCodec ID : XVID\nCodec ID/Hint : XviD\nDuration : 1h 38mn\nBit rate : 968 Kbps\nWidth : 720 pixels\nHeight : 384 pixels\nDisplay aspect ratio : 1.875\nFrame rate : 29.970 fps\nResolution : 24 bits\nColorimetry : 4:2:0\nScan type : Progressive\nBits/(Pixel*Frame) : 0.117\nStream size : 679 MiB (87%)\nWriting library : XviD 1.2.1 (UTC 2008-12-04)\nAudio #1\nID : 1\nFormat : MPEG Audio\nFormat version : Version 1\nFormat profile : Layer 3\nCodec ID : 55\nCodec ID/Hint : MP3\nDuration : 1h 38mn\nBit rate mode : Constant\nBit rate : 128 Kbps\nChannel(s) : 2 channels\nSampling rate : 48.0 KHz\nResolution : 16 bits\nStream size : 89.8 MiB (12%)\nAlignment : Split accross interleaves\nInterleave, duration : 33 ms (1.00 video frame)\nInterleave, preload duration : 500 ms\n\n\nPlot:\nN-Secure is a no holds-barred thrilling drama mixed with murder, mayhem and manipulation among affluent professionals. This film sheds light on a man's downfall from the pinnacles of success into the depths of his damaged character. His insecurities lead him into a series of troubled romantic relationships and eventually a web of events that include betrayal and murder.\n\n","torrent":{"xt":"urn:btih:203b3b5c7d4db82f01658538d5512ba4f4d2488e","amp;dn":"N-Secure.2010.Cam.XviD.Feel-Free","amp;tr":["udp%3A%2F%2Ftracker.openbittorrent.com%3A80","udp%3A%2F%2Fopen.demonii.com%3A1337","udp%3A%2F%2Ftracker.coppersurfer.tk%3A6969","udp%3A%2F%2Fexodus.desync.com%3A6969"],"infoHash":"203b3b5c7d4db82f01658538d5512ba4f4d2488e","infoHashBuffer":{"type":"Buffer","data":[32,59,59,92,125,77,184,47,1,101,133,56,213,81,43,164,244,210,72,142]},"announce":[],"urlList":[]}}